<!DOCTYPE svg PUBLIC "-//W3C//DTD SVG 1.1//EN" "http://www.w3.org/Graphics/SVG/1.1/DTD/svg11.dtd">
<!-- Uploaded to: SVG Repo, www.svgrepo.com, Transformed by: SVG Repo Mixer Tools -->
<svg width="256px" height="256px" viewBox="0 0 36 36" xmlns="http://www.w3.org/2000/svg" xmlns:xlink="http://www.w3.org/1999/xlink" aria-hidden="true" role="img" class="iconify iconify--twemoji" preserveAspectRatio="xMidYMid meet" fill="#ffffff">
<g id="SVGRepo_bgCarrier" stroke-width="0"/>
<g id="SVGRepo_tracerCarrier" stroke-linecap="round" stroke-linejoin="round"/>
<g id="SVGRepo_iconCarrier">
<path fill="#ffffff" d="M30.011 20.183s.093-2.362-1.792-3.068c-1.667-.625-2.309.622-2.309.622s.059-1.914-1.941-2.622c-1.885-.668-2.984.773-2.984.773s-.072-1.687-2.058-2.232c-1.671-.459-2.916 1.167-2.916 1.167v-.822c0-.959-.542-2.575-2.543-2.576c-2-.002-2.457 1.659-2.457 2.576v1.614c0 1.323-.948.198-1.636.823c-1.57 1.427-2.269 6.431-1.188 10.5c1.312 4.938 4.062 9.101 9.694 9.101c8.132 0 12.124-5.298 12.129-11.924l.001-3.932z"/>
<path fill="#ffffff" d="M21 18.5a2.5 2.5 0 1 1-5 0v-16a2.5 2.5 0 1 1 5 0v16zM12.25 16l-2.312.003c-1.625 0-2.141.465-2.812 3.122c-.438 1.729-.984 2.547-.984 4.391c0 2.906 4.594 12.348 11.359 12.391L12.25 16z"/>
<path fill="#e6e6e6" d="M10 25.521c0 .251.204.479.456.479h.088a.456.456 0 0 0 .456-.456V16h-.969L10 25.521z"/>
</g>
</svg>